/* XPM */
static char *f43facccf9fb4a3d880a26056a6bb63funGjxXraBfJ5iPVR[] = {
/* columns rows colors chars-per-pixel */
"64 64 6 1 ",
"  c gray24",
". c #3E3E3E",
"X c #3F3F3F",
"o c gray50",
"O c #808080",
"+ c #818181",
/* pixels */
"OOOOoooooooooooooooooooooooooooooooooooooooooooooooooooooooooooo",
"OXXX XXXXX XXXXX XXXXX XXXXX XXXXX XXXXX XXXXX XXXXX XXXXXX XXXO",
"oXXXX  XX X X XXX X X X X XXX X X X X XXX X X X X XXX X X XXXXXo",
"o XX  X XX X X X X XXX X X X X XXX X X X X XXX X X X X XXX  XXXo",
"oXX X  XX X X X X X X X X X X X X X X X X X X X X X X X X X   Xo",
"oX  XXX  X X X X X X X X X X X X X X X X X X X X X X X XXX X XXo",
"oXXX  XXX X X X X X X X X X X X X X X X X X X X X X X X  XX X Xo",
"oXXXX  X X X X X X X X X X X X X X X X X X X X X X X X XX   XXXo",
"o X X X X X X X X X X X X X X X X X X X X X X X X X X X X X X Xo",
"oX X X X X X X X X X X X X X X X X X X X X X X X X X X X X X XXo",
"oXX X X X X X X X X X X X X X X X X X X X X X X X X X X X X X Xo",
"oX X X X X X X X X X X X X X X X X X X X X X X X X X X X X X XXo",
"oXXXX X X X X X X X X X X X X X X X X X X X X X X X X X X X X Xo",
"oX X X X X X X X X X X X X X X X X X X X X X X X X X X X X X XXo",
"o X X X X X X X X X X X X X X X X X X X X X X X X X X X X X X Xo",
"oX X X X X X X X X X X X X X X X X X X X X X X X X X X X X X XXo",
"oXX X X X X X X X X X X X X X X X X X X X X X X X X X X X X X Xo",
"oX X X X X X X X X X X X X X X X X X X X X X X X X X X X X X XXo",
"oXX X X X X X X X X X X X X X X X X X X X X X X X X X X X X X Xo",
"oXXX X X X X X X X X X X X X X X X X X X X X X X X X X X X X XXo",
"o X X X X X X X X X X X X X X X X X X X X X X X X X X X X X X Xo",
"oX X X X X X X X X X X X X X X X X X X X X X X X X X X X X X XXo",
"oXX X X X X X X X X X X X X X X X X X X X X X X X X X X X X X Xo",
"oX X X X X X X X X X X X X X X X X X X X X X X X X X X X X X XXo",
"oXXXX X X X X X X X X X X X X X X X X X X X X X X X X X X X X Xo",
"oX X X X X X X X X X X X X X X X X X X X X X X X X X X X X X XXo",
"o X X X X X X X X X X X X X X X X X X X X X X X X X X X X X X Xo",
"oX X X X X X X X X X X X X X X X X X X X X X X X X X X X X X XXo",
"oXX X X X X X X X X X X X X X X X X X X X X X X X X X X X X X Xo",
"oX X X X X X X X X X X X X X X X X X X X X X X X X X X X X X XXo",
"oXX X X X X X X X X X X X X X X X X X X X X X X X X X X X X X Xo",
"oXXX X X X X X X X X X X X X X X X X X X X X X X X X X X X X XXo",
"o X X X X X X X X X X X X X X X X X X X X X X X X X X X X X X Xo",
"oX X X X X X X X X X X X X X X X X X X X X X X X X X X X X X XXo",
"oXX X X X X X X X X X X X X X X X X X X X X X X X X X X X X X Xo",
"oX X X X X X X X X X X X X X X X X X X X X X X X X X X X X X XXo",
"oXXXX X X X X X X X X X X X X X X X X X X X X X X X X X X X X Xo",
"oX X X X X X X X X X X X X X X X X X X X X X X X X X X X X X XXo",
"o X X X X X X X X X X X X X X X X X X X X X X X X X X X X X X Xo",
"oX X X X X X X X X X X X X X X X X X X X X X X X X X X X X X XXo",
"oXX X X X X X X X X X X X X X X X X X X X X X X X X X X X X X Xo",
"oX X X X X X X X X X X X X X X X X X X X X X X X X X X X X X XXo",
"oXX X X X X X X X X X X X X X X X X X X X X X X X X X X X X X Xo",
"oXXX X X X X X X X X X X X X X X X X X X X X X X X X X X X X XXo",
"o X X X X X X X X X X X X X X X X X X X X X X X X X X X X X X Xo",
"oX X X X X X X X X X X X X X X X X X X X X X X X X X X X X X XXo",
"oXX X X X X X X X X X X X X X X X X X X X X X X X X X X X X X Xo",
"oX X X X X X X X X X X X X X X X X X X X X X X X X X X X X X XXo",
"oXXXX X X X X X X X X X X X X X X X X X X X X X X X X X X X X Xo",
"oX X X X X X X X X X X X X X X X X X X X X X X X X X X X X X XXo",
"o X X X X X X X X X X X X X X X X X X X X X X X X X X X X X X Xo",
"oX X X X X X X X X X X X X X X X X X X X X X X X X X X X X X XXo",
"oXX X X X X X X X X X X X X X X X X X X X X X X X X X X X X X Xo",
"oX X X X X X X X X X X X X X X X X X X X X X X X X X X X X X XXo",
"oXX X X X X X X X X X X X X X X X X X X X X X X X X X X X X X Xo",
"oXXX X X X X X X X X X X X X X X X X X X X X X X X X X X X X XXo",
"oXX   XXX X X X X X X X X X X X X X X X X X X X X X X X X X X Xo",
"oX XXX   X X X X X X X X X X X X X X X X X X X X X X X X X X XXo",
"oXX  X XX X X X X X X X X X X X X X X X X X X X X X X X   X XXXo",
"oX X XX  X X X X X X X X X X X X X X X X X X X X X X X XXX X XXo",
"oXXXX  XX XXX X X X X XXX X X X X XXX X X X X XXX X X X X XXX Xo",
"oXX XXX  X X X XXX X X X X XXX X X X X XXX X X X X XXX X X X XXo",
"OX XXXXXX XXXXX XXXXX XXXXX XXXXX XXXXX XXXXX XXXXX XXXXX XXXXXo",
"ooooooooooooooooooooooooooooooooooooooooooooooooooooooooooOooooo"
};
